<svg xmlns="http://www.w3.org/2000/svg" width="36" height="36" class="eysoos__icon eysoos__icon--small" viewBox="0 0 20 20"><path fill="#7d849b" d="M-2831-3084.5a6.5 6.5 0 0 1 6.5-6.5 6.5 6.5 0 0 1 6.5 6.5 6.5 6.5 0 0 1-6.5 6.5 6.5 6.5 0 0 1-6.5-6.5zm2 0a1 1 0 0 0 1 1h2.5v2.5a1 1 0 0 0 1 1 1 1 0 0 0 1-1v-2.5h2.5a1 1 0 0 0 1-1 1 1 0 0 0-1-1h-2.5v-2.5a1 1 0 0 0-1-1 1 1 0 0 0-1 1v2.5h-2.5a1 1 0 0 0-1 1zm-7.25 3.5a1.752 1.752 0 0 1-1.75-1.75v-13.5a1.751 1.751 0 0 1 1.75-1.75h11.5a1.752 1.752 0 0 1 1.75 1.75v3.749a.75.75 0 0 1-.75.75.75.75 0 0 1-.75-.75v-3.749a.251.251 0 0 0-.251-.25h-11.5a.25.25 0 0 0-.25.249v13.5a.25.25 0 0 0 .25.25h4.25a.751.751 0 0 1 .751.75.751.751 0 0 1-.751.751zm2.5-4.5a.751.751 0 0 1-.75-.751.75.75 0 0 1 .75-.75h1a.75.75 0 0 1 .75.75.751.751 0 0 1-.75.751zm0-3.5a.75.75 0 0 1-.75-.75.75.75 0 0 1 .75-.751h3a.751.751 0 0 1 .75.751.751.751 0 0 1-.75.75zm0-3.5a.75.75 0 0 1-.75-.75.751.751 0 0 1 .75-.75h6.5a.751.751 0 0 1 .751.75.751.751 0 0 1-.751.75z" transform="translate(2838 3098)"></path></svg>