<svg width="60" height="60" viewBox="0 0 60 60" fill="none" xmlns="http://www.w3.org/2000/svg">
<rect width="60" height="60" rx="30" fill="#006CE1"/>
<path d="M26.1555 28.705C27.0786 28.5548 27.7055 27.6824 27.5556 26.7566C27.4058 25.8308 26.536 25.2021 25.6129 25.3524C24.6897 25.5027 24.0629 26.375 24.2127 27.3008C24.3626 28.2266 25.2324 28.8553 26.1555 28.705Z" fill="white"/>
<path d="M34.2207 28.7281C35.1559 28.7281 35.914 27.9677 35.914 27.0298C35.914 26.0919 35.1559 25.3315 34.2207 25.3315C33.2855 25.3315 32.5273 26.0919 32.5273 27.0298C32.5273 27.9677 33.2855 28.7281 34.2207 28.7281Z" fill="white"/>
<path d="M35.5274 33.843L33.946 33.1123C33.5763 33.8284 33.0174 34.4289 32.3304 34.848C31.6435 35.2671 30.8549 35.4888 30.0508 35.4888C29.2467 35.4888 28.4581 35.2671 27.7712 34.848C27.0842 34.4289 26.5253 33.8284 26.1557 33.1123L25.3649 33.4764L24.5742 33.838C24.6364 33.9776 26.1581 37.232 30.0446 37.232C33.931 37.232 35.4627 33.9826 35.5274 33.843Z" fill="white"/>
<path d="M48 28.6259C48 25.4263 45.6416 22.7554 42.5054 22.1244C41.9036 19.2667 40.3432 16.7025 38.0848 14.8599C35.8263 13.0174 33.0065 12.0079 30.0959 12C27.1853 11.9922 24.36 12.9863 22.0917 14.8166C19.8234 16.6469 18.2492 19.2026 17.632 22.0571C15.9788 22.3081 14.4814 23.1774 13.4403 24.4904C12.3993 25.8034 11.8916 27.4631 12.0194 29.1361C12.1471 30.8091 12.9007 32.3718 14.1289 33.5104C15.3571 34.649 16.969 35.2792 18.641 35.2746H18.8895V23.8252C20.0948 23.6033 23.1813 22.6456 26.059 18.4983C28.0049 20.1368 33.2385 23.5759 40.1719 20.466C40.456 21.1342 40.6724 21.8293 40.8181 22.5409V35.2222C39.6053 41.5791 34.8339 43.2899 32.8458 43.7313C32.6021 42.9828 32.0964 42.3483 31.4224 41.9452C30.7484 41.5421 29.9516 41.3976 29.1796 41.5387C28.4077 41.6797 27.7127 42.0966 27.2235 42.7122C26.7342 43.3278 26.4838 44.1004 26.5185 44.8871C26.5532 45.6738 26.8707 46.4212 27.4123 46.991C27.9539 47.5608 28.6828 47.9144 29.4642 47.9864C30.2455 48.0583 31.0265 47.8438 31.6623 47.3825C32.2982 46.9211 32.746 46.2442 32.9229 45.477C35.1371 45.0132 41.325 43.0081 42.6272 35.095C45.7038 34.4242 48 31.7832 48 28.6259ZM26.6281 16.6703C26.5202 16.5633 26.3896 16.482 26.2462 16.4324C26.1028 16.3828 25.9501 16.3661 25.7993 16.3835C25.6486 16.401 25.5037 16.4522 25.3753 16.5333C25.2469 16.6145 25.1383 16.7235 25.0575 16.8524C22.9551 20.1667 20.7658 21.4087 19.476 21.8725C20.0402 19.8114 21.1895 17.9594 22.784 16.5421C24.3785 15.1248 26.3493 14.2034 28.4563 13.8902C30.5633 13.577 32.7156 13.8855 34.651 14.7781C36.5864 15.6706 38.2214 17.1088 39.3568 18.9173C32.4805 21.9374 27.5575 17.5806 26.6331 16.6703H26.6281Z" fill="white"/>
</svg>
