<svg width="20" height="21" viewBox="0 0 20 21" fill="none" xmlns="http://www.w3.org/2000/svg">
<path fill-rule="evenodd" clip-rule="evenodd" d="M3.11082 6.77455C2.40471 6.2243 1.95 5.36775 1.95 4.41016C1.95 2.76016 3.31 1.41016 4.96 1.41016C6.61 1.41016 7.97 2.76016 7.97 4.41016C7.97 5.35318 7.52903 6.19821 6.84124 6.74923C7.31423 6.9633 7.55113 7.50444 7.37 8.00014C7.18 8.52014 6.61 8.78014 6.08 8.60014C5.74 8.48014 5.38 8.41014 5.01 8.41014C3.69 8.41014 2.54 9.23014 2.12 10.4101H4.95C5.5 10.4101 5.95 10.8601 5.95 11.4101C5.95 11.9601 5.5 12.4101 4.95 12.4101H1.56C1.11 12.4101 0.680004 12.2001 0.380004 11.8501C0.0600043 11.4701 -0.0599957 10.9701 0.0300043 10.4701C0.356481 8.76521 1.55144 7.39715 3.11082 6.77455ZM4.96 3.41016C4.41 3.41016 3.96 3.86016 3.96 4.41016C3.96 4.96016 4.41 5.41016 4.96 5.41016C5.51 5.41016 5.96 4.96016 5.96 4.41016C5.96 3.86016 5.51 3.41016 4.96 3.41016ZM11.4631 14.0551C12.5179 13.5169 13.24 12.4226 13.24 11.1601C13.24 9.36518 11.7804 7.91011 9.97997 7.91011C8.17952 7.91011 6.71997 9.36518 6.71997 11.1601C6.71997 12.4207 7.43989 13.5137 8.49222 14.0527C5.99608 14.5427 4.04895 16.2461 3.57005 18.3802C3.45005 18.9102 3.89005 19.4102 4.44005 19.4102H15.5C16.05 19.4102 16.4901 18.9102 16.3701 18.3802C15.8921 16.2421 13.9519 14.5469 11.4631 14.0551ZM13.0884 6.77264C12.3837 6.22232 11.9301 5.36664 11.9301 4.41016C11.9301 2.76016 13.2801 1.41016 14.9401 1.41016C16.6001 1.41016 17.9501 2.76016 17.9501 4.41016C17.9501 5.35271 17.5095 6.19737 16.8223 6.7484C18.4143 7.35824 19.6389 8.74092 19.97 10.4701C20.06 10.9601 19.94 11.4601 19.62 11.8501C19.32 12.2101 18.89 12.4101 18.44 12.4101H14.98C14.43 12.4101 13.98 11.9601 13.98 11.4101C13.98 10.8601 14.43 10.4101 14.98 10.4101H17.87C17.44 9.23014 16.29 8.41014 14.98 8.41014C14.58 8.41014 14.18 8.49014 13.81 8.63014C13.3 8.84014 12.71 8.59014 12.51 8.08014C12.3 7.57014 12.55 6.99014 13.07 6.78014C13.0761 6.77763 13.0823 6.77513 13.0884 6.77264ZM14.9401 3.41016C14.3901 3.41016 13.9401 3.86016 13.9401 4.41016C13.9401 4.96016 14.3901 5.41016 14.9401 5.41016C15.4901 5.41016 15.9401 4.96016 15.9401 4.41016C15.9401 3.86016 15.4901 3.41016 14.9401 3.41016Z" fill="#7D849B"/>
</svg>
