<svg width="20" height="20" viewBox="0 0 20 20" fill="none" xmlns="http://www.w3.org/2000/svg">
<path fill-rule="evenodd" clip-rule="evenodd" d="M18 5.96951V16.9995C18 18.0995 17.1 18.9995 16 18.9995H4C2.9 18.9995 2 18.0995 2 16.9995V2.99951C2 1.89951 2.9 0.999512 4 0.999512H12.14C12.6 0.999512 13.05 1.15951 13.41 1.44951L17.24 4.40951C17.73 4.80951 18 5.36951 18 5.96951ZM12 4.99951V2.99951H4V16.9995H16V5.99951H13C12.45 5.99951 12 5.54951 12 4.99951ZM13 12.9995C13.55 12.9995 14 13.4495 14 13.9995C14 14.5495 13.55 14.9995 13 14.9995H7C6.45 14.9995 6 14.5495 6 13.9995C6 13.4495 6.45 12.9995 7 12.9995H13ZM14 9.99951C14 9.44951 13.55 8.99951 13 8.99951H7C6.45 8.99951 6 9.44951 6 9.99951C6 10.5495 6.45 10.9995 7 10.9995H13C13.55 10.9995 14 10.5495 14 9.99951ZM10 4.99951C10.55 4.99951 11 5.44951 11 5.99951C11 6.54951 10.55 6.99951 10 6.99951H7C6.45 6.99951 6 6.54951 6 5.99951C6 5.44951 6.45 4.99951 7 4.99951H10Z" fill="#006CE1"/>
</svg>
