<svg  xmlns="http://www.w3.org/2000/svg" class="eysoos__icon eysoos__icon--small" viewBox="0 0 20 20" fill="#006ce1"><path d="M-698-173a2 2 0 0 1-2-2v-10h-1a1 1 0 0 1-1-1 1 1 0 0 1 1-1h3v-1a2 2 0 0 1 2-2h4a2 2 0 0 1 2 2v1h3a1 1 0 0 1 1 1 1 1 0 0 1-1 1h-1v10a2 2 0 0 1-2 2zm0-12v10h8v-10h-8zm6-2v-1h-4v1zm-1.25 9.751v-5.5a.751.751 0 0 1 .751-.75.75.75 0 0 1 .75.75v5.5a.75.75 0 0 1-.75.75.751.751 0 0 1-.751-.751zm-3 0v-5.5a.75.75 0 0 1 .75-.75.751.751 0 0 1 .751.75v5.5a.751.751 0 0 1-.751.75.75.75 0 0 1-.75-.751z" transform="translate(704 191)"></path></svg>