<svg  xmlns="http://www.w3.org/2000/svg" class="eysoos__icon eysoos__icon--small" viewBox="0 0 20 20"   fill="#006ce1"><path d="M-701.711-88.3a1.006 1.006 0 0 1-.267-.932l1.169-5.064a1 1 0 0 1 .267-.482l8.571-8.571a2.019 2.019 0 0 1 2.842-.131l2.6 2.6a2.019 2.019 0 0 1-.13 2.843l-8.57 8.57a1 1 0 0 1-.482.267l-5.065 1.169A1 1 0 0 1-701-88a1 1 0 0 1-.711-.3zm5.782-1.876h-.01zm-3-3.392-.743 3.227 3.225-.746 5.7-5.694-2.481-2.481zm9.237-4.274 1.612-1.612a.293.293 0 0 0 .06-.085l-2.456-2.457a.284.284 0 0 0-.086.06l-1.612 1.612z" transform="translate(704.004 106.003)"></path></svg>