<?xml version="1.0" encoding="UTF-8"?><svg id="_圖層_1" xmlns="http://www.w3.org/2000/svg" xmlns:xlink="http://www.w3.org/1999/xlink" viewBox="0 0 200 200"><defs><style>.cls-1{fill:url(#_未命名漸層_16);}.cls-1,.cls-2,.cls-3,.cls-4,.cls-5,.cls-6,.cls-7,.cls-8{stroke-width:0px;}.cls-2{fill:url(#_未命名漸層_2-2);}.cls-3{fill:url(#_未命名漸層_16-3);}.cls-4{fill:url(#_未命名漸層_37);}.cls-5{fill:url(#_未命名漸層_16-2);}.cls-6{fill:url(#_未命名漸層_3);}.cls-7{fill:url(#_未命名漸層_2);}.cls-8{fill:url(#_未命名漸層_2-3);}</style><radialGradient id="_未命名漸層_37" cx="383.54" cy="229.83" fx="383.54" fy="229.83" r="332.15" gradientTransform="translate(-134.61 -188.31) scale(.8)" gradientUnits="userSpaceOnUse"><stop offset="0" stop-color="#7ac2fd"/><stop offset=".17" stop-color="#63b5fc"/><stop offset=".52" stop-color="#2a95fc"/><stop offset=".65" stop-color="#1389fc"/><stop offset="1" stop-color="#1442cc"/></radialGradient><linearGradient id="_未命名漸層_2" x1="74.63" y1="92.12" x2="70.85" y2="107.67" gradientUnits="userSpaceOnUse"><stop offset="0" stop-color="#fff"/><stop offset=".39" stop-color="#fcfefe"/><stop offset=".57" stop-color="#f5fafe"/><stop offset=".7" stop-color="#e8f4fe"/><stop offset=".82" stop-color="#d6ecfe"/><stop offset=".92" stop-color="#bee1fe"/><stop offset="1" stop-color="#a5d6fe"/></linearGradient><linearGradient id="_未命名漸層_2-2" x1="96.19" y1="92.12" x2="92.41" y2="107.67" xlink:href="#_未命名漸層_2"/><linearGradient id="_未命名漸層_2-3" x1="117.74" y1="92.12" x2="113.96" y2="107.67" xlink:href="#_未命名漸層_2"/><radialGradient id="_未命名漸層_16" cx="153.09" cy="78.83" fx="153.09" fy="78.83" r="60.15" gradientTransform="translate(0 28.91) scale(1 .63)" gradientUnits="userSpaceOnUse"><stop offset="0" stop-color="#fff"/><stop offset=".39" stop-color="#fcfefe"/><stop offset=".57" stop-color="#f5fafe"/><stop offset=".7" stop-color="#e8f4fe"/><stop offset=".82" stop-color="#d6ecfe"/><stop offset=".92" stop-color="#bee1fe"/><stop offset="1" stop-color="#a5d6fe"/></radialGradient><radialGradient id="_未命名漸層_3" cx="104.17" cy="40.53" fx="104.17" fy="40.53" r="86.98" gradientUnits="userSpaceOnUse"><stop offset="0" stop-color="#fff"/><stop offset=".39" stop-color="#fcfefe"/><stop offset=".57" stop-color="#f5fafe"/><stop offset=".7" stop-color="#e8f4fe"/><stop offset=".82" stop-color="#d6ecfe"/><stop offset=".92" stop-color="#bee1fe"/><stop offset="1" stop-color="#a5d6fe"/></radialGradient><radialGradient id="_未命名漸層_16-2" cx="44.21" cy="127.16" fx="44.21" fy="127.16" r="115.06" gradientTransform="translate(56.2 24.51) rotate(31.99) scale(1 .73)" xlink:href="#_未命名漸層_16"/><radialGradient id="_未命名漸層_16-3" cx="161.26" cy="124.8" fx="161.26" fy="124.8" r="43.9" gradientTransform="matrix(1,0,0,1,0,0)" xlink:href="#_未命名漸層_16"/></defs><rect class="cls-4" width="200" height="200" rx="50" ry="50"/><circle class="cls-7" cx="72.72" cy="100" r="6.99"/><circle class="cls-2" cx="94.27" cy="100" r="6.99"/><circle class="cls-8" cx="115.82" cy="100" r="6.99"/><path class="cls-1" d="m96.22,52.31h0c2.64-1.21,5.75-1.09,8.3.38l43.83,25.31c5.48,3.16,12.49,1.29,15.65-4.19,3.16-5.48,1.29-12.49-4.19-15.65l-22.72-13.12c-17.92-6.95-28.56.74-40.86,7.27Z"/><path class="cls-6" d="m60.24,126.86h0c-2.17-1.7-3.47-4.33-3.47-7.12v-39.48c0-3.22,1.73-6.22,4.52-7.83l34.19-19.74c.24-.14.49-.27.74-.38h0c12.3-6.54,22.94-14.22,40.86-7.27l-21.11-12.19c-4.85-2.8-10.37-4.28-15.97-4.28s-11.12,1.48-15.97,4.28l-34.19,19.74c-4.85,2.8-8.89,6.84-11.69,11.69-2.8,4.85-4.28,10.37-4.28,15.97v17.45c2.13,15.87,18.31,24.86,26.38,29.15Z"/><path class="cls-5" d="m143.23,118.99v.75c0,3.22-1.73,6.22-4.52,7.83l-34.19,19.74c-2.79,1.61-6.25,1.61-9.04,0l-34.19-19.74c-.37-.21-.72-.45-1.05-.71h0c-8.08-4.29-24.26-13.29-26.38-29.15v22.03c0,5.6,1.48,11.12,4.28,15.97,2.8,4.85,6.84,8.89,11.69,11.69l34.19,19.74c4.85,2.8,10.37,4.28,15.97,4.28s11.12-1.48,15.97-4.28l34.19-19.74c1.79-1.03,3.47-2.24,5.02-3.58,10.05-9.91-2-19.37-11.95-24.84Z"/><path class="cls-3" d="m161,102.81c-.09-.06-12.04-6.97-12.04-6.97-5.48-3.16-12.49-1.29-15.65,4.19-3.16,5.48-1.29,12.49,4.19,15.65l5.73,3.31c9.95,5.47,22,14.93,11.95,24.84,2.65-2.31,4.91-5.05,6.68-8.11,2.8-4.85,4.28-10.37,4.28-15.97v-7.37c0-3.99-2.04-7.51-5.14-9.56Z"/></svg>