<?xml version="1.0" encoding="UTF-8"?><svg id="_圖層_1" xmlns="http://www.w3.org/2000/svg" xmlns:xlink="http://www.w3.org/1999/xlink" viewBox="0 0 200 200"><defs><style>.cls-1{fill:url(#_未命名漸層_25);}.cls-1,.cls-2,.cls-3,.cls-4,.cls-5,.cls-6,.cls-7{stroke-width:0px;}.cls-2{fill:url(#_未命名漸層_43-3);}.cls-3{fill:url(#_未命名漸層_517);}.cls-4{fill:url(#_未命名漸層_43-2);}.cls-5{fill:url(#_未命名漸層_519);}.cls-6{fill:url(#_未命名漸層_43);}.cls-7{fill:url(#_未命名漸層_515);}</style><radialGradient id="_未命名漸層_43" cx="70.27" cy="82.53" fx="70.27" fy="82.53" r="31.54" gradientUnits="userSpaceOnUse"><stop offset="0" stop-color="#1389fc"/><stop offset=".24" stop-color="#137cf3"/><stop offset=".68" stop-color="#135dde"/><stop offset="1" stop-color="#1442cc"/></radialGradient><radialGradient id="_未命名漸層_43-2" cx="100.44" fx="100.44" xlink:href="#_未命名漸層_43"/><radialGradient id="_未命名漸層_43-3" cx="130.62" fx="130.62" r="31.54" xlink:href="#_未命名漸層_43"/><radialGradient id="_未命名漸層_515" cx="174.32" cy="70.36" fx="174.32" fy="70.36" r="84.21" gradientTransform="translate(0 25.8) scale(1 .63)" gradientUnits="userSpaceOnUse"><stop offset="0" stop-color="#7ac2fd"/><stop offset=".11" stop-color="#6cbafc"/><stop offset=".31" stop-color="#47a6fc"/><stop offset=".56" stop-color="#1389fc"/><stop offset=".66" stop-color="#1385f9"/><stop offset=".77" stop-color="#1379f1"/><stop offset=".87" stop-color="#1365e3"/><stop offset=".98" stop-color="#1349d1"/><stop offset="1" stop-color="#1442cc"/></radialGradient><radialGradient id="_未命名漸層_25" cx="105.84" cy="16.74" fx="105.84" fy="16.74" r="121.77" gradientUnits="userSpaceOnUse"><stop offset="0" stop-color="#7ac2fd"/><stop offset=".42" stop-color="#1389fc"/><stop offset=".68" stop-color="#1387fa"/><stop offset=".79" stop-color="#137ff5"/><stop offset=".86" stop-color="#1373ed"/><stop offset=".93" stop-color="#1362e1"/><stop offset=".98" stop-color="#134bd2"/><stop offset="1" stop-color="#1442cc"/></radialGradient><radialGradient id="_未命名漸層_517" cx="21.9" cy="138.02" fx="21.9" fy="138.02" r="161.08" gradientTransform="translate(57.04 40.43) rotate(31.99) scale(1 .73)" gradientUnits="userSpaceOnUse"><stop offset="0" stop-color="#7ac2fd"/><stop offset=".43" stop-color="#1389fc"/><stop offset=".64" stop-color="#1386fa"/><stop offset=".75" stop-color="#137ef4"/><stop offset=".84" stop-color="#1370eb"/><stop offset=".92" stop-color="#135dde"/><stop offset=".99" stop-color="#1344cd"/><stop offset="1" stop-color="#1442cc"/></radialGradient><radialGradient id="_未命名漸層_519" cx="185.76" cy="134.72" fx="185.76" fy="134.72" r="61.46" gradientUnits="userSpaceOnUse"><stop offset="0" stop-color="#7ac2fd"/><stop offset=".1" stop-color="#76bffc"/><stop offset=".19" stop-color="#6ab9fc"/><stop offset=".29" stop-color="#56aefc"/><stop offset=".38" stop-color="#3b9ffc"/><stop offset=".48" stop-color="#178bfc"/><stop offset=".49" stop-color="#1389fc"/><stop offset=".56" stop-color="#137bf3"/><stop offset=".81" stop-color="#1352d6"/><stop offset=".94" stop-color="#1442cc"/></radialGradient></defs><circle class="cls-6" cx="61.8" cy="100" r="9.79"/><circle class="cls-4" cx="91.98" cy="100" r="9.79"/><circle class="cls-2" cx="122.15" cy="100" r="9.79"/><path class="cls-7" d="m94.71,33.24h0c3.7-1.7,8.06-1.52,11.62.53l61.37,35.43c7.67,4.43,17.48,1.8,21.91-5.87,4.43-7.67,1.8-17.48-5.87-21.91l-31.81-18.37c-25.09-9.72-39.99,1.03-57.21,10.18Z"/><path class="cls-1" d="m44.34,137.6h0c-3.03-2.38-4.86-6.06-4.86-9.97v-55.27c0-4.51,2.42-8.7,6.33-10.96l47.87-27.64c.34-.19.68-.37,1.03-.53h0c17.22-9.15,32.12-19.91,57.21-10.18l-29.55-17.06c-6.79-3.92-14.52-5.99-22.36-5.99s-15.57,2.07-22.36,5.99l-47.87,27.64c-6.79,3.92-12.45,9.58-16.37,16.37-3.92,6.79-5.99,14.52-5.99,22.36v24.42c2.98,22.21,25.63,34.81,36.94,40.82Z"/><path class="cls-3" d="m160.52,126.58v1.06c0,4.51-2.42,8.7-6.33,10.96l-47.87,27.64c-3.9,2.25-8.75,2.25-12.65,0l-47.87-27.64c-.51-.3-1-.63-1.46-.99h0c-11.31-6.01-33.96-18.6-36.94-40.82v30.85c0,7.84,2.07,15.57,5.99,22.36,3.92,6.79,9.58,12.45,16.37,16.37l47.87,27.64c6.79,3.92,14.52,5.99,22.36,5.99s15.57-2.07,22.36-5.99l47.87-27.64c2.5-1.45,4.86-3.13,7.02-5.02,14.07-13.87-2.8-27.11-16.73-34.77Z"/><path class="cls-5" d="m185.39,103.93c-.12-.09-16.86-9.76-16.86-9.76-7.67-4.43-17.48-1.8-21.91,5.87-4.43,7.67-1.8,17.48,5.87,21.91l8.02,4.63c13.93,7.66,30.81,20.9,16.73,34.77,3.71-3.23,6.88-7.07,9.35-11.35,3.92-6.79,5.99-14.52,5.99-22.36v-10.32c0-5.59-2.86-10.51-7.2-13.38Z"/></svg>