<svg class="eysoos__icon eysoos__icon--small" viewBox="0 0 20 20" xmlns="http://www.w3.org/2000/svg">
<path fill="#7d849b" d="M-3279.845-2666.083a9.011 9.011 0 0 1 9-9 9.01 9.01 0 0 1 9 9 9.01 9.01 0 0 1-9 9 9.011 9.011 0 0 1-9-9zm2 0a7.008 7.008 0 0 0 7 7 7.008 7.008 0 0 0 7-7 7.008 7.008 0 0 0-7-7 7.008 7.008 0 0 0-7 7zm6 4a1 1 0 0 1 1-1 1 1 0 0 1 1 1 1 1 0 0 1-1 1 1 1 0 0 1-1-1.001zm0-3a3.162 3.162 0 0 1 1.264-2.141c.248-.24.706-.686.736-.867a1 1 0 0 0-1-.992 1 1 0 0 0-1 1 1 1 0 0 1-1 1 1 1 0 0 1-1-1 3 3 0 0 1 3-3 3 3 0 0 1 3 3 3.392 3.392 0 0 1-1.34 2.292 3.732 3.732 0 0 0-.666.756.975.975 0 0 1-1 .976 1.017 1.017 0 0 1-.994-1.025z" transform="translate(3280.845 2676.084)"></path></svg>