<svg xmlns="http://www.w3.org/2000/svg" width="20" height="20" viewBox="0 0 20 20">
    <path style="fill:none" d="M0 0h20v20H0z"/>
    <path data-name="联合 199" d="M-1163-1124a1 1 0 0 1-1-1 1 1 0 0 1 1-1h3v-2h-6a2 2 0 0 1-2-2v-10a2 2 0 0 1 2-2h14a2 2 0 0 1 2 2v10a2 2 0 0 1-2 2h-6v2h3a1 1 0 0 1 1 1 1 1 0 0 1-1 1zm-3-7.686 2.551-1.913a.751.751 0 0 1 .866-.024l2.489 1.659 4.064-4.065a.749.749 0 0 1 1.046-.014l2.986 2.829V-1140h-14zm2-5.313a2 2 0 0 1 2-2 2 2 0 0 1 2 2 2 2 0 0 1-2 2 2 2 0 0 1-2-2.001z" transform="translate(1169 1143)" style="fill:#006CE1"/>
</svg>
