<svg xmlns="http://www.w3.org/2000/svg" class="eysoos__icon eysoos__icon--small eysoos__icon__toast--success" viewBox="0 0 20 20"  width="20" height="20" fill="#2dba0b"><path d="M-3279.845-2666.083a9.011 9.011 0 0 1 9-9 9.011 9.011 0 0 1 9 9 9.01 9.01 0 0 1-9 9 9.011 9.011 0 0 1-9-9zm2 0a7.008 7.008 0 0 0 7 7 7.009 7.009 0 0 0 7-7 7.008 7.008 0 0 0-7-7 7.008 7.008 0 0 0-7 7zm5.294 2.708-2-2a1 1 0 0 1 0-1.414 1 1 0 0 1 1.414 0l1.292 1.293 3.293-3.293a1 1 0 0 1 1.414 0 1 1 0 0 1 0 1.414l-4 4a1 1 0 0 1-.707.292 1 1 0 0 1-.706-.292z" transform="translate(3280.845 2676.083)"></path></svg>