<svg xmlns="http://www.w3.org/2000/svg" width="20" height="20" viewBox="0 0 20 20">
    <path data-name="联合 75" d="M-3279.1-1843.618a1 1 0 0 1-1-1 1 1 0 0 1 1-1h16a1 1 0 0 1 1 1 1 1 0 0 1-1 1zm0-6a1 1 0 0 1-1-1 1 1 0 0 1 1-1h16a1 1 0 0 1 1 1 1 1 0 0 1-1 1zm2.277-5.053-3-1.5a.5.5 0 0 1-.277-.447.5.5 0 0 1 .277-.446l3-1.5a.493.493 0 0 1 .486.022.5.5 0 0 1 .237.425v3a.5.5 0 0 1-.237.425.493.493 0 0 1-.263.075.5.5 0 0 1-.219-.054zm3.723-.947a1 1 0 0 1-1-1 1 1 0 0 1 1-1h10a1 1 0 0 1 1 1 1 1 0 0 1-1 1z" transform="translate(3281.096 1860.619)" style="fill:#ffffff;stroke:transparent;stroke-miterlimit:10"/>
    <path data-name="矩形 631" style="fill:none" d="M0 0h20v20H0z"/>
</svg>
