<svg xmlns="http://www.w3.org/2000/svg" width="20" height="20" viewBox="0 0 20 20">
    <path d="M-3279.845-2666.083a9.011 9.011 0 0 1 9-9 9.011 9.011 0 0 1 9 9 9.01 9.01 0 0 1-9 9 9.011 9.011 0 0 1-9-9zm2 0a7.008 7.008 0 0 0 7 7 6.963 6.963 0 0 0 4.19-1.4l-9.795-9.794a6.965 6.965 0 0 0-1.395 4.194zm12.6 4.191a6.963 6.963 0 0 0 1.4-4.191 7.008 7.008 0 0 0-7-7 6.962 6.962 0 0 0-4.19 1.4z" transform="translate(3280.845 2676.083)" style="fill:#ff330b;stroke:transparent;stroke-miterlimit:10"/>
</svg>
