<svg xmlns="http://www.w3.org/2000/svg" width="20" height="20" viewBox="0 0 20 20">
    <path data-name="矩形 2002" style="fill:none;opacity:.2" d="M0 0h20v20H0z"/>
    <path data-name="路径 10182" d="M6.911 15.659a.75.75 0 0 1-.74-.877l.554-3.224-2.343-2.284A.75.75 0 0 1 4.8 7.995l3.238-.471 1.445-2.933a.749.749 0 0 1 .672-.418.75.75 0 0 1 .673.418l1.447 2.933 3.238.471a.75.75 0 0 1 .416 1.279l-2.343 2.284.553 3.224a.75.75 0 0 1-1.088.791l-2.9-1.522-2.891 1.522a.747.747 0 0 1-.349.086z" transform="translate(-.155 -.173)" style="fill:#006ce1"/>
</svg>
