<svg xmlns="http://www.w3.org/2000/svg" width="20" height="20" viewBox="0 0 20 20">
    <path data-name="矩形 631" style="fill:none" d="M0 0h20v20H0z"/>
    <path data-name="联合 168" d="M-964-275a6 6 0 0 1 6-6 6 6 0 0 1 6 6 6 6 0 0 1-6 6 6 6 0 0 1-6-6zm2 0a1 1 0 0 0 1 1h2v2a1 1 0 0 0 1 1 1 1 0 0 0 1-1v-2h2a1 1 0 0 0 1-1 1 1 0 0 0-1-1h-2v-2a1 1 0 0 0-1-1 1 1 0 0 0-1 1v2h-2a1 1 0 0 0-1 1zm-8.126 2a1.829 1.829 0 0 1-1.378-.644 2.048 2.048 0 0 1-.475-1.633 7.915 7.915 0 0 1 3.906-5.94 4.489 4.489 0 0 1-1.427-3.283 4.505 4.505 0 0 1 4.5-4.5 4.506 4.506 0 0 1 4.5 4.5 4.5 4.5 0 0 1-2.2 3.865 1 1 0 0 1-1.183.763A6.662 6.662 0 0 0-965-280c-2.485 0-4.587 2.1-5 5h3.749a1 1 0 0 1 1 1 1 1 0 0 1-1 1zm2.626-11.5a2.5 2.5 0 0 0 2.5 2.5 2.5 2.5 0 0 0 2.5-2.5 2.5 2.5 0 0 0-2.5-2.5 2.5 2.5 0 0 0-2.5 2.5z" transform="translate(972 289)" style="fill:#7d849b"/>
</svg>
