<svg xmlns="http://www.w3.org/2000/svg" width="21" height="20.138" viewBox="0 0 21 20.138">
    <path data-name="联合 99" d="m-2974.567-2607.844-.867-.5a2.505 2.505 0 0 1-.915-3.415l.589-1.02c-.109-.157-.209-.314-.3-.476s-.181-.329-.261-.5h-1.177a2.5 2.5 0 0 1-2.5-2.5v-1a2.5 2.5 0 0 1 2.5-2.5h1.179a7 7 0 0 1 .563-.972l-.589-1.022a2.5 2.5 0 0 1 .914-3.417l.867-.5a2.5 2.5 0 0 1 3.415.915l.591 1.021a6.986 6.986 0 0 1 1.123 0l.59-1.021a2.5 2.5 0 0 1 3.414-.916l.867.5a2.507 2.507 0 0 1 .916 3.417l-.589 1.019c.109.157.21.316.3.478s.18.327.26.5h1.176a2.5 2.5 0 0 1 2.5 2.5v1a2.5 2.5 0 0 1-2.5 2.5h-1.18a6.894 6.894 0 0 1-.562.973l.591 1.022a2.505 2.505 0 0 1-.916 3.415l-.867.5a2.5 2.5 0 0 1-3.415-.915l-.589-1.022a7.113 7.113 0 0 1-1.124 0l-.59 1.021a2.484 2.484 0 0 1-1.517 1.166 2.564 2.564 0 0 1-.652.085 2.485 2.485 0 0 1-1.245-.336zm6.527-3.517.925 1.6a.488.488 0 0 0 .3.232.49.49 0 0 0 .38-.05l.867-.5a.5.5 0 0 0 .183-.682l-.925-1.6a1 1 0 0 1 .107-1.149 4.947 4.947 0 0 0 .913-1.579 1 1 0 0 1 .942-.666h1.847a.5.5 0 0 0 .5-.5v-1a.5.5 0 0 0-.5-.5h-1.847a1 1 0 0 1-.942-.665 5.005 5.005 0 0 0-.38-.834 5.089 5.089 0 0 0-.534-.749 1 1 0 0 1-.105-1.147l.924-1.6a.5.5 0 0 0-.183-.684l-.867-.5a.5.5 0 0 0-.681.183l-.924 1.6a1 1 0 0 1-1.05.482 5 5 0 0 0-1.822 0 1 1 0 0 1-1.049-.482l-.924-1.6a.5.5 0 0 0-.684-.183l-.866.5a.5.5 0 0 0-.183.685l.924 1.6a1 1 0 0 1-.105 1.15 4.983 4.983 0 0 0-.913 1.578 1 1 0 0 1-.943.667h-1.847a.5.5 0 0 0-.5.5v1a.5.5 0 0 0 .5.5h1.847a1 1 0 0 1 .942.665 5.069 5.069 0 0 0 .381.835 5.053 5.053 0 0 0 .533.747 1 1 0 0 1 .1 1.149l-.924 1.6a.5.5 0 0 0 .184.682l.867.5a.5.5 0 0 0 .683-.183l.924-1.6a1 1 0 0 1 1.048-.483 5 5 0 0 0 1.823 0 1.064 1.064 0 0 1 .184-.017 1 1 0 0 1 .87.498zm-5.424-3.394a3.973 3.973 0 0 1-.535-1.988 4 4 0 0 1 2-3.476 3.967 3.967 0 0 1 3.035-.4 3.973 3.973 0 0 1 2.428 1.864 3.971 3.971 0 0 1 .538 2.011 4.019 4.019 0 0 1-.138 1.024 3.972 3.972 0 0 1-1.864 2.429 3.979 3.979 0 0 1-1.992.536 4 4 0 0 1-3.472-2zm1.3-.75a2.5 2.5 0 0 0 3.415.915 2.485 2.485 0 0 0 1.166-1.518 2.53 2.53 0 0 0 .086-.64 2.48 2.48 0 0 0-.335-1.257 2.482 2.482 0 0 0-1.519-1.165 2.464 2.464 0 0 0-.65-.086 2.489 2.489 0 0 0-1.247.337 2.5 2.5 0 0 0-1.249 2.172 2.488 2.488 0 0 0 .331 1.247zm.665-1.25a1.5 1.5 0 0 1 1.5-1.5 1.5 1.5 0 0 1 1.5 1.5 1.5 1.5 0 0 1-1.5 1.5 1.5 1.5 0 0 1-1.501-1.5z" transform="translate(2980.5 2627.001)" style="fill:#006CE1;stroke:transparent;stroke-miterlimit:10"/>
</svg>
