<svg width="20" height="20" viewBox="0 0 20 20" fill="none" xmlns="http://www.w3.org/2000/svg">
<g clip-path="url(#clip0_43_986)">
<path fill-rule="evenodd" clip-rule="evenodd" d="M0.000488281 2.37016C0.000488281 1.29016 0.880488 0.410156 1.97049 0.410156H16.0305C17.1205 0.410156 18.0005 1.29016 18.0005 2.37016V5.66016C18.0005 6.21016 17.5505 6.66016 17.0005 6.66016C16.4505 6.66016 16.0005 6.21016 16.0005 5.66016V5.41016H1.98049L2.00049 14.4502L6.00049 14.4102C6.55049 14.4102 7.00049 14.8602 7.00049 15.4102C7.00049 15.9602 6.55049 16.4102 6.00049 16.4102H1.97049C0.880488 16.4102 0.000488281 15.5302 0.000488281 14.4502V2.37016ZM12.2505 1.91016C12.8005 1.91016 13.2505 2.36016 13.2505 2.91016C13.2505 3.46016 12.8005 3.91016 12.2505 3.91016C11.7005 3.91016 11.2505 3.46016 11.2505 2.91016C11.2505 2.36016 11.7005 1.91016 12.2505 1.91016ZM16.2505 2.91016C16.2505 2.36016 15.8005 1.91016 15.2505 1.91016C14.7005 1.91016 14.2505 2.36016 14.2505 2.91016C14.2505 3.46016 14.7005 3.91016 15.2505 3.91016C15.8005 3.91016 16.2505 3.46016 16.2505 2.91016ZM19.1905 17.6646C19.7005 17.2846 20.0005 16.6946 20.0005 16.0546V9.77465C20.0005 9.12465 19.7005 8.53465 19.1905 8.15465C18.6705 7.77465 18.0205 7.66465 17.4105 7.85465L12.3505 9.41465H10.0005C8.90049 9.41465 8.00049 10.3046 8.00049 11.4146V14.4146C8.00049 15.5146 8.90049 16.4146 10.0005 16.4146H10.5949L12.08 19.8092C12.25 20.1892 12.62 20.4092 13 20.4092C13.14 20.4092 13.27 20.3892 13.4 20.3292C13.91 20.1092 14.14 19.5192 13.92 19.0092L12.8521 16.5683L17.4105 17.9646C17.6105 18.0246 17.8105 18.0546 18.0005 18.0546C18.4205 18.0546 18.8405 17.9246 19.1905 17.6646ZM12.0005 11.4066V14.4066H10.0005V11.4066H12.0005ZM13.5005 14.6746L18.0005 16.0566V9.7666L13.5005 11.1486V14.6746Z" fill="#006ce1"/>
</g>
<defs>
<clipPath id="clip0_43_986">
<rect width="20.0009" height="20.0001" fill="white" transform="translate(0 0.410156)"/>
</clipPath>
</defs>
</svg>
