<svg width="20" height="20" viewBox="0 0 20 20" fill="none" xmlns="http://www.w3.org/2000/svg">
<path d="M2.83496 14.575C2.76376 14.4645 2.71511 14.341 2.69165 14.2117C2.66819 14.0823 2.67038 13.9497 2.69824 13.8213C2.72611 13.6928 2.77907 13.5711 2.854 13.4631C2.92894 13.3552 3.02443 13.2629 3.13501 13.1919C3.35806 13.0484 3.62901 12.9994 3.88818 13.0557C4.14736 13.1119 4.3736 13.2689 4.51709 13.4919C5.10339 14.4136 5.91321 15.172 6.87134 15.6965C7.82947 16.2211 8.90476 16.4946 9.99707 16.4919C11.7204 16.4901 13.3725 15.8048 14.5911 14.5862C15.8096 13.3676 16.4952 11.7153 16.4971 9.99194C16.495 8.26869 15.8093 6.61672 14.5908 5.39819C13.3723 4.17967 11.7203 3.49406 9.99707 3.49194C9.00783 3.48743 8.03081 3.71054 7.1416 4.14404C6.25239 4.57755 5.47465 5.20984 4.8689 5.99194H5.99707C6.26229 5.99194 6.51657 6.09738 6.7041 6.28491C6.89164 6.47245 6.99707 6.72673 6.99707 6.99194C6.99707 7.25716 6.89164 7.51144 6.7041 7.69897C6.51657 7.88651 6.26229 7.99194 5.99707 7.99194H2.49707C2.23185 7.99194 1.97733 7.88651 1.78979 7.69897C1.60226 7.51144 1.49707 7.25716 1.49707 6.99194V3.49194C1.49707 3.22673 1.60226 2.97245 1.78979 2.78491C1.97733 2.59738 2.23185 2.49194 2.49707 2.49194C2.76229 2.49194 3.01657 2.59738 3.2041 2.78491C3.39164 2.97245 3.49707 3.22673 3.49707 3.49194V4.52002C4.29712 3.57538 5.29236 2.81556 6.41455 2.29297C7.53674 1.77037 8.75917 1.49734 9.99707 1.49292C12.2507 1.4953 14.4111 2.39156 16.0046 3.98511C17.5982 5.57865 18.4947 7.73931 18.4971 9.99292C18.4947 12.2465 17.5982 14.4072 16.0046 16.0007C14.4111 17.5943 12.2507 18.4905 9.99707 18.4929C8.56987 18.4961 7.16494 18.1388 5.91284 17.4539C4.66075 16.7689 3.60198 15.7785 2.83496 14.575Z" fill="#7D849B"/>
</svg>
