<svg width="24" height="24" viewBox="0 0 24 24" fill="none" xmlns="http://www.w3.org/2000/svg">
<g id="send-1">
<path id="Vector" d="M4.46797 3.10987C3.66383 2.70801 2.77374 3.47529 3.05228 4.32988L4.85856 9.86736C4.90965 10.0238 5.00265 10.1632 5.12745 10.2705C5.25225 10.3778 5.40407 10.4488 5.56641 10.4758L12.7033 11.6652C13.0791 11.7282 13.0791 12.2682 12.7033 12.3312L5.56686 13.5206C5.40452 13.5476 5.2527 13.6186 5.1279 13.7259C5.0031 13.8332 4.9101 13.9726 4.85901 14.129L3.05228 19.6697C2.77329 20.5247 3.66383 21.292 4.46797 20.8901L20.4401 12.9059C21.1866 12.5324 21.1866 11.4672 20.4401 11.0941L4.46797 3.10987Z" fill="#006CE1"/>
</g>
</svg>
