<svg width="24" height="24" viewBox="0 0 24 24" fill="none" xmlns="http://www.w3.org/2000/svg">
<g id="speech input">
<g id="vector">
<path d="M16.9 22C13.8 22 11.3 19.5 11.3 16.4C11.3 13.3 13.8 10.8 16.9 10.8C20 10.8 22.5 13.3 22.5 16.4C22.5 19.5 20 22 16.9 22ZM16.9 12C14.5 12 12.5 14 12.5 16.4C12.5 18.8 14.5 20.8 16.9 20.8C19.3 20.8 21.3 18.8 21.3 16.4C21.3 14 19.3 12 16.9 12Z" fill="#181818"/>
<path d="M18.9 15.4H14.9C14.6 15.4 14.3 15.1 14.3 14.8C14.3 14.5 14.6 14.2 14.9 14.2H18.9C19.2 14.2 19.5 14.5 19.5 14.8C19.5 15.1 19.2 15.4 18.9 15.4Z" fill="#181818"/>
<path d="M16.9 19.2C16.6 19.2 16.3 18.9 16.3 18.6V14.8C16.3 14.5 16.6 14.2 16.9 14.2C17.2 14.2 17.5 14.5 17.5 14.8V18.6C17.5 18.9 17.2 19.2 16.9 19.2Z" fill="#181818"/>
<path d="M8.1 15.2C6.1 15.2 4.5 13.6 4.5 11.6V5.6C4.5 3.6 6.1 2 8.1 2C10.1 2 11.7 3.6 11.7 5.6V11.6C11.7 13.6 10.1 15.2 8.1 15.2ZM8.1 3.2C6.8 3.2 5.7 4.3 5.7 5.6V11.6C5.7 12.9 6.8 14 8.1 14C9.4 14 10.5 12.9 10.5 11.6V5.6C10.5 4.3 9.4 3.2 8.1 3.2Z" fill="#181818"/>
<path d="M8.6 18.2H7.6C4.2 18.2 1.5 15.5 1.5 12.1V11.6C1.5 11.3 1.8 11 2.1 11C2.4 11 2.7 11.3 2.7 11.6V12.1C2.7 14.8 4.9 17 7.6 17H8.6C9.2 17 9.8 16.9 10.3 16.7C10.6 16.6 11 16.7 11.1 17.1C11.2 17.4 11.1 17.8 10.7 17.9C10 18.1 9.3 18.3 8.6 18.3V18.2Z" fill="#181818"/>
<path d="M8.1 20.7C7.8 20.7 7.5 20.4 7.5 20.1V17.6C7.5 17.3 7.8 17 8.1 17C8.4 17 8.7 17.3 8.7 17.6V20.1C8.7 20.4 8.4 20.7 8.1 20.7Z" fill="#181818"/>
</g>
</g>
</svg>
