<svg width="20" height="20" viewBox="0 0 20 20" fill="none" xmlns="http://www.w3.org/2000/svg">
<g id="S / auxiliary / data sync disconnect">
<g id="vector">
<path d="M3.70711 17.7071L17.7071 3.70711C18.0976 3.31658 18.0976 2.68342 17.7071 2.29289C17.3166 1.90237 16.6834 1.90237 16.2929 2.29289L14.8877 3.69812C13.5381 2.63924 11.849 2 10.0001 2C7.60752 2 5.46562 3.04813 4 4.71017V4C4 3.44772 3.55228 3 3 3C2.44772 3 2 3.44772 2 4V7.2C2 7.75228 2.44772 8.2 3 8.2H6.27C6.82228 8.2 7.27 7.75228 7.27 7.2C7.27 6.64772 6.82228 6.2 6.27 6.2H5.3545C6.45312 4.8574 8.12408 4 10.0001 4C11.299 4 12.488 4.41929 13.4676 5.11822L2.29289 16.2929C1.90237 16.6834 1.90237 17.3166 2.29289 17.7071C2.68342 18.0976 3.31658 18.0976 3.70711 17.7071Z" fill="#006CE1"/>
<path d="M12.73 12.8C12.73 12.2477 13.1777 11.8 13.73 11.8H17C17.5523 11.8 18 12.2477 18 12.8V16.07C18 16.6223 17.5523 17.07 17 17.07C16.4477 17.07 16 16.6223 16 16.07V15.2899C14.5344 16.9519 12.3925 18 10 18C8.53 18 7.16 17.59 5.98 16.9L7.45 15.43C8.22 15.79 9.09 16 10 16C11.876 16 13.547 15.1426 14.6456 13.8H13.73C13.1777 13.8 12.73 13.3523 12.73 12.8Z" fill="#006CE1"/>
<path d="M15.4201 7.46L16.9001 5.98L16.9101 5.99L16.9442 6.04918C17.084 6.29096 17.2291 6.54194 17.3401 6.81C17.5601 7.32 17.3301 7.91 16.8201 8.13C16.3101 8.35 15.7201 8.12 15.5001 7.61C15.4901 7.585 15.4751 7.56001 15.4601 7.53501C15.4451 7.51002 15.4301 7.485 15.4201 7.46Z" fill="#006CE1"/>
<path d="M3.69 14.89L5.12 13.46C4.88 13.13 4.67 12.77 4.5 12.39C4.28 11.88 3.69 11.65 3.18 11.87C2.67 12.09 2.44 12.68 2.66 13.19C2.93 13.8 3.28 14.36 3.69 14.88V14.89Z" fill="#006CE1"/>
</g>
</g>
</svg>
