<svg width="20" height="21" viewBox="0 0 20 21" fill="none" xmlns="http://www.w3.org/2000/svg">
<g clip-path="url(#clip0_43_990)">
<path fill-rule="evenodd" clip-rule="evenodd" d="M7.46397 16.285L7.76273 14.9967C7.79036 14.8724 7.84184 14.7528 7.91717 14.6479H4.44092C4.03092 14.6479 3.69092 14.3079 3.69092 13.8979C3.69092 13.4879 4.03092 13.1479 4.44092 13.1479H9.39949L10.9407 11.6045H4.44092C4.03092 11.6045 3.69092 11.2645 3.69092 10.8545C3.69092 10.4445 4.03092 10.1045 4.44092 10.1045H11.4409C11.7086 10.1045 11.9465 10.2494 12.0793 10.4642L13.0786 9.46343C13.0929 9.44707 13.1079 9.43108 13.1235 9.41549C13.1387 9.40025 13.1544 9.3856 13.1703 9.37156L13.9616 8.57913C13.9474 8.51175 13.94 8.4417 13.94 8.36967V2.40967H2V16.2797H7.36C7.39509 16.2797 7.42978 16.2815 7.46397 16.285ZM15.94 7.15445V2.38967C15.94 1.29967 15.05 0.409668 13.95 0.409668H1.99C0.89 0.409668 0 1.29967 0 2.38967V16.2897C0 17.3897 0.89 18.2797 1.99 18.2797H7.00135L6.83273 19.0067C6.75273 19.3467 6.85273 19.6967 7.09273 19.9367C7.28273 20.1267 7.54273 20.2367 7.80273 20.2367C7.88273 20.2367 7.95273 20.2267 8.03273 20.2067L12.0427 19.2767C12.2227 19.2267 12.3927 19.1367 12.5227 19.0067L19.3127 12.2067C20.0427 11.4767 20.0927 10.3367 19.4227 9.66672L17.3727 7.61672C17.0627 7.30672 16.6427 7.13672 16.1927 7.13672C16.1083 7.13672 16.0238 7.14271 15.94 7.15445ZM3.69092 5.49609V7.49609C3.69092 8.18609 4.25092 8.74609 4.94092 8.74609H6.94092C7.63092 8.74609 8.19092 8.18609 8.19092 7.49609V5.49609C8.19092 4.80609 7.63092 4.24609 6.94092 4.24609H4.94092C4.25092 4.24609 3.69092 4.80609 3.69092 5.49609ZM5.19092 7.24609H6.69092V5.74609H5.19092V7.24609ZM11.4409 4.33838C11.8509 4.33838 12.1909 4.67838 12.1909 5.08838C12.1909 5.49838 11.8509 5.83838 11.4409 5.83838H9.44092C9.03092 5.83838 8.69092 5.49838 8.69092 5.08838C8.69092 4.67838 9.03092 4.33838 9.44092 4.33838H11.4409ZM12.1909 8.1084C12.1909 7.6984 11.8509 7.3584 11.4409 7.3584H9.44092C9.03092 7.3584 8.69092 7.6984 8.69092 8.1084C8.69092 8.5184 9.03092 8.8584 9.44092 8.8584H11.4409C11.8509 8.8584 12.1909 8.5184 12.1909 8.1084ZM9.64111 15.7327L13.832 11.5417L15.4965 13.2008L11.3111 17.3927L9.14111 17.8927L9.64111 15.7327ZM15.2497 10.124L16.9077 11.7874L17.8111 10.8827L16.1511 9.22266L15.2497 10.124Z" fill="#7D849B"/>
</g>
<defs>
<clipPath id="clip0_43_990">
<rect width="20" height="20" fill="white" transform="translate(0 0.410156)"/>
</clipPath>
</defs>
</svg>
